<svg xmlns="http://www.w3.org/2000/svg" viewBox="0 0 32 32" fill="none">
  <rect width="32" height="32" rx="8" fill="#4F46E5"/>
  <!-- Open book icon -->
  <path d="M16 9.5C16 9.5 12.5 8.2 8.5 9.5V22.5C12.5 21.2 16 22.5 16 22.5C16 22.5 19.5 21.2 23.5 22.5V9.5C19.5 8.2 16 9.5 16 9.5Z" fill="white" fill-opacity="0.2"/>
  <path d="M16 9.5V22.5" stroke="white" stroke-width="1.2" stroke-linecap="round"/>
  <path d="M8.5 9.5C12.5 8.2 16 9.5 16 9.5C16 9.5 19.5 8.2 23.5 9.5V22.5C19.5 21.2 16 22.5 16 22.5C16 22.5 12.5 21.2 8.5 22.5V9.5Z" stroke="white" stroke-width="1.8" stroke-linecap="round" stroke-linejoin="round"/>
</svg>
